<svg xmlns="http://www.w3.org/2000/svg" xmlns:xlink="http://www.w3.org/1999/xlink" viewBox="0 0 264 250" preserveAspectRatio="xMidYMid" width="264" height="250" style="display:block;shape-rendering:auto;background-position-x:0%;background-position-y:0%;background-size:auto;background-origin:padding-box;background-clip:border-box;background:scroll rgb(255, 255, 255) none  repeat;width:264px;height:250px;;animation:none"><style type="text/css">.ld-text text {
    text-anchor: middle;
    dominant-baseline: middle;
    font-size: 52px;
    opacity: 0;
    user-select: none;
    pointer-events: none;
  }</style>


<g class="ld-text" style="transform-origin:132px 125px;transform:matrix(1, 0, 0, 1, 0, 0);;animation:none"><g transform="matrix(1,0,0,1,132,125)" style="transform:matrix(1, 0, 0, 1, 132, 125);;animation:none"><g transform="matrix(0.6500000357627869,0,0,0.6500000357627869,0,0)" style="transform:matrix(0.65, 0, 0, 0.65, 0, 0);;animation:none"><g class="path" style="transform-origin:-146.64px 20.17px;transform:matrix(1, 0, 0, 1, 0, -6.18479);animation-duration:1.47059s;animation-timing-function:linear;animation-delay:-0.862745s;animation-iteration-count:infinite;animation-direction:normal;animation-fill-mode:forwards;animation-play-state:paused;animation-name:animate-epyih64cgw;animation-timeline:auto;animation-range-start:normal;animation-range-end:normal;transform-box:view-box;;animation:none"><path d="M24.72 50.29L24.72 50.29Q33.12 50.29 37.80 46.85Q42.48 43.41 42.48 37.73L42.48 37.73Q42.48 33.65 40.44 30.53Q38.40 27.41 35.36 25.37Q32.32 23.33 29.16 21.33Q26 19.33 23.28 16.29Q20.56 13.25 19.68 9.41L19.68 9.41Q12.40 7.25 10.08 0.37L10.08 0.37Q9.20-2.27 9.20-5.15Q9.20-8.03 10.08-11.15L10.08-11.15Q11.92-17.31 16.08-20.43L16.08-20.43L16.96-19.15Q13.20-16.43 11.52-10.67L11.52-10.67Q10.72-7.79 10.72-5.15Q10.72-2.51 11.52-0.11L11.52-0.11Q13.44 5.73 19.44 7.73L19.44 7.73Q19.28 6.85 19.28 5.01L19.28 5.01Q19.28-5.47 26.88-11.95Q34.48-18.43 45.44-18.43L45.44-18.43Q52.64-18.43 56.96-14.51L56.96-14.51Q60.64-11.07 60.64-6.07Q60.64-1.07 57.28 2.57Q53.92 6.21 48.24 6.21L48.24 6.21Q45.12 6.21 43.12 5.01L43.12 5.01Q39.04 8.13 33.44 9.49L33.44 9.49Q35.04 11.01 40.92 15.09Q46.80 19.17 49.72 22.89Q52.64 26.61 52.64 31.57L52.64 31.57Q52.64 40.69 45.56 46.37Q38.48 52.05 27.64 52.05Q16.80 52.05 11.28 47.25L11.28 47.25Q6.48 43.17 6.48 37.29Q6.48 31.41 10.28 27.21Q14.08 23.01 19.76 23.01Q25.44 23.01 28.16 25.53Q30.88 28.05 30.88 31.65Q30.88 35.25 28.68 38.05Q26.48 40.85 22.96 40.85Q19.44 40.85 17.36 38.61L17.36 38.61Q15.44 36.69 15.20 33.81L15.20 33.81Q15.12 33.01 15.20 32.85L15.20 32.85L16.72 32.93Q16.64 35.73 18.48 37.57L18.48 37.57Q20 39.25 22.92 39.25Q25.84 39.25 27.60 36.97Q29.36 34.69 29.36 31.69Q29.36 28.69 27.28 26.85L27.28 26.85Q24.96 24.53 19.84 24.53Q14.72 24.53 11.36 28.25Q8 31.97 8 37.21Q8 42.45 12.32 46.13L12.32 46.13Q14.88 48.37 17.56 49.33Q20.24 50.29 24.72 50.29 zM38.32-4.75L38.32-4.75Q38.32-8.27 40.12-10.59Q41.92-12.91 45.04-12.91L45.04-12.91Q50.40-12.91 50.40-7.03Q50.40-1.15 44.56 4.05L44.56 4.05Q46.32 4.85 48.24 4.85L48.24 4.85Q53.20 4.85 56.16 1.61Q59.12-1.63 59.12-5.99Q59.12-10.35 55.92-13.39L55.92-13.39Q52-16.91 45.60-16.91Q39.20-16.91 34.72-13.79L34.72-13.79Q27.76-8.83 27.76-0.99L27.76-0.99Q27.76 5.49 32.08 8.45L32.08 8.45Q37.44 7.25 42 4.13L42 4.13Q38.32 0.85 38.32-4.75 zM44.96-11.47L44.96-11.47Q42.56-11.47 41.24-9.63Q39.92-7.79 39.92-4.75L39.92-4.75Q39.92 0.45 43.20 3.17L43.20 3.17Q45.60 1.49 47.20-1.39Q48.80-4.27 48.80-7.07L48.80-7.07Q48.80-11.47 44.96-11.47" transform="matrix(1,0,0,1,-180.1999969482422,-17.386999130249023)" style="fill:rgb(11, 11, 11);transform:matrix(1, 0, 0, 1, -180.2, -17.387);;animation:none"></path></g>
<g class="path" style="transform-origin:-101.4px 11.74px;transform:matrix(1, 0, 0, 1, 0, -8.25317);animation-duration:1.47059s;animation-timing-function:linear;animation-delay:-0.754902s;animation-iteration-count:infinite;animation-direction:normal;animation-fill-mode:forwards;animation-play-state:paused;animation-name:animate-epyih64cgw;animation-timeline:auto;animation-range-start:normal;animation-range-end:normal;transform-box:view-box;;animation:none"><path d="M89.76 35.49L89.76 35.49Q82.72 35.49 82.08 29.33L82.08 29.33Q78.56 35.49 73.20 35.49Q67.84 35.49 64.68 32.25Q61.52 29.01 61.52 23.17L61.52 23.17Q61.52 14.05 66 8.85Q70.48 3.65 77.60 3.65L77.60 3.65Q83.44 3.65 85.36 9.17L85.36 9.17Q85.76 6.77 86.24 4.37L86.24 4.37Q92.16 4.37 95.04 3.89L95.04 3.89L96.08 3.65L90.56 33.89Q92.96 33.65 94.56 31.65L94.56 31.65L95.76 32.61Q93.36 35.49 89.76 35.49 zM70.56 27.25Q70.56 30.85 71.48 32.25Q72.40 33.65 74.32 33.65Q76.24 33.65 78.24 31.57L78.24 31.57Q80.88 28.85 82.48 24.69L82.48 24.69Q82.72 23.65 83.40 19.69Q84.08 15.73 84.56 13.17L84.56 13.17Q84.32 10.13 82.88 7.89Q81.44 5.65 79.28 5.65L79.28 5.65Q75.36 5.65 72.96 12.65Q70.56 19.65 70.56 27.25L70.56 27.25" transform="matrix(1,0,0,1,-180.1999969482422,-17.386999130249023)" style="fill:rgb(11, 11, 11);transform:matrix(1, 0, 0, 1, -180.2, -17.387);;animation:none"></path></g>
<g class="path" style="transform-origin:-63.8px 22.94px;transform:matrix(1, 0, 0, 1, 0, -9.48219);animation-duration:1.47059s;animation-timing-function:linear;animation-delay:-0.647059s;animation-iteration-count:infinite;animation-direction:normal;animation-fill-mode:forwards;animation-play-state:paused;animation-name:animate-epyih64cgw;animation-timeline:auto;animation-range-start:normal;animation-range-end:normal;transform-box:view-box;;animation:none"><path d="M126.56 43.49L126.56 43.49Q129.44 43.49 131.52 41.25L131.52 41.25L132.64 42.21Q130.72 44.93 126.56 44.93L126.56 44.93Q124.80 44.93 122.96 44.53L122.96 44.53Q117.52 49.49 109.04 49.49L109.04 49.49Q104 49.49 101.24 47.77Q98.48 46.05 98.48 43.29Q98.48 40.53 100.20 38.89Q101.92 37.25 106.32 37.25Q110.72 37.25 117.92 40.85L117.92 40.85L120.40 27.57Q116.80 34.21 111.12 34.21L111.12 34.21Q100.24 34.21 100.24 23.49L100.24 23.49Q100.24 14.53 104.76 9.09Q109.28 3.65 116.32 3.65L116.32 3.65Q120.40 3.65 122.64 6.13L122.64 6.13Q123.28 6.85 123.92 8.29L123.92 8.29L124.64 4.37Q130.56 4.37 133.28 3.89L133.28 3.89L134.32 3.65L129.04 33.17Q127.84 39.41 124.24 43.25L124.24 43.25Q125.28 43.49 126.56 43.49 zM109.28 25.97Q109.28 29.65 110 30.89Q110.72 32.13 112.72 32.13Q114.72 32.13 116.80 29.97Q118.88 27.81 119.80 25.93Q120.72 24.05 121.36 22.29L121.36 22.29L123.04 13.09L123.04 12.53Q123.04 5.17 116.32 5.17L116.32 5.17Q113.76 5.17 111.52 12.13Q109.28 19.09 109.28 25.97L109.28 25.97 zM108.72 47.89L108.72 47.89Q115.12 47.89 117.36 42.37L117.36 42.37L116.24 41.81Q115.28 41.33 115.08 41.21Q114.88 41.09 114 40.69Q113.12 40.29 112.72 40.17Q112.32 40.05 111.48 39.73Q110.64 39.41 110.08 39.29Q109.52 39.17 108.80 39.01L108.80 39.01Q107.60 38.77 105.28 38.77Q102.96 38.77 101.56 39.89Q100.16 41.01 100.16 43.17Q100.16 45.33 102.48 46.61Q104.80 47.89 108.72 47.89" transform="matrix(1,0,0,1,-180.1999969482422,-17.386999130249023)" style="fill:rgb(11, 11, 11);transform:matrix(1, 0, 0, 1, -180.2, -17.387);;animation:none"></path></g>
<g class="path" style="transform-origin:-25.48px 11.74px;transform:matrix(1, 0, 0, 1, 0, -9.98647);animation-duration:1.47059s;animation-timing-function:linear;animation-delay:-0.539216s;animation-iteration-count:infinite;animation-direction:normal;animation-fill-mode:forwards;animation-play-state:paused;animation-name:animate-epyih64cgw;animation-timeline:auto;animation-range-start:normal;animation-range-end:normal;transform-box:view-box;;animation:none"><path d="M165.68 35.49L165.68 35.49Q158.64 35.49 158 29.33L158 29.33Q154.48 35.49 149.12 35.49Q143.76 35.49 140.60 32.25Q137.44 29.01 137.44 23.17L137.44 23.17Q137.44 14.05 141.92 8.85Q146.40 3.65 153.52 3.65L153.52 3.65Q159.36 3.65 161.28 9.17L161.28 9.17Q161.68 6.77 162.16 4.37L162.16 4.37Q168.08 4.37 170.96 3.89L170.96 3.89L172 3.65L166.48 33.89Q168.88 33.65 170.48 31.65L170.48 31.65L171.68 32.61Q169.28 35.49 165.68 35.49 zM146.48 27.25Q146.48 30.85 147.40 32.25Q148.32 33.65 150.24 33.65Q152.16 33.65 154.16 31.57L154.16 31.57Q156.80 28.85 158.40 24.69L158.40 24.69Q158.64 23.65 159.32 19.69Q160 15.73 160.48 13.17L160.48 13.17Q160.24 10.13 158.80 7.89Q157.36 5.65 155.20 5.65L155.20 5.65Q151.28 5.65 148.88 12.65Q146.48 19.65 146.48 27.25L146.48 27.25" transform="matrix(1,0,0,1,-180.1999969482422,-17.386999130249023)" style="fill:rgb(11, 11, 11);transform:matrix(1, 0, 0, 1, -180.2, -17.387);;animation:none"></path></g>
<g class="path" style="transform-origin:11px 11.16px;transform:matrix(1, 0, 0, 1, 0, -9.62546);animation-duration:1.47059s;animation-timing-function:linear;animation-delay:-0.431373s;animation-iteration-count:infinite;animation-direction:normal;animation-fill-mode:forwards;animation-play-state:paused;animation-name:animate-epyih64cgw;animation-timeline:auto;animation-range-start:normal;animation-range-end:normal;transform-box:view-box;;animation:none"><path d="M177.84 7.49L176.64 6.53Q179.04 3.65 182.68 3.65Q186.32 3.65 188.32 5.49Q190.32 7.33 190.32 10.69L190.32 10.69L190.32 11.17Q193.92 3.65 199.68 3.65L199.68 3.65Q205.84 3.65 205.84 10.05L205.84 10.05Q205.84 12.69 204.08 15.65Q202.32 18.61 200.56 21.29Q198.80 23.97 198.80 26.05L198.80 26.05L196.88 26.05Q196.88 23.09 200.32 18.05Q203.76 13.01 203.76 10.25Q203.76 7.49 202.68 6.49Q201.60 5.49 199.48 5.49Q197.36 5.49 195.32 7.33Q193.28 9.17 191.92 11.97L191.92 11.97Q189.76 16.13 189.04 18.77L189.04 18.77L189.04 18.85L186.16 34.77L176.56 34.77L181.84 5.25Q179.44 5.49 177.84 7.49L177.84 7.49" transform="matrix(1,0,0,1,-180.1999969482422,-17.386999130249023)" style="fill:rgb(11, 11, 11);transform:matrix(1, 0, 0, 1, -180.2, -17.387);;animation:none"></path></g>
<g class="path" style="transform-origin:55.8px 11px;transform:matrix(1, 0, 0, 1, 0, -8.52332);animation-duration:1.47059s;animation-timing-function:linear;animation-delay:-0.323529s;animation-iteration-count:infinite;animation-direction:normal;animation-fill-mode:forwards;animation-play-state:paused;animation-name:animate-epyih64cgw;animation-timeline:auto;animation-range-start:normal;animation-range-end:normal;transform-box:view-box;;animation:none"><path d="M232.08 33.41L232.08 33.41Q240 33.41 240 21.73L240 21.73Q240 18.85 239.16 14.93Q238.32 11.01 238.16 10.05L238.16 10.05Q233.28 15.09 227.20 16.13L227.20 16.13L227.20 14.21Q232.96 12.93 238 7.65L238 7.65L238 7.33Q238 5.41 238.56 3.57Q239.12 1.73 239.68 0.85L239.68 0.85L240.24-0.03L242.16-0.03Q242.16 3.49 243.28 6.41Q244.40 9.33 245.76 11.13Q247.12 12.93 248.24 15.85Q249.36 18.77 249.36 22.29L249.36 22.29Q249.36 27.97 245.08 31.73Q240.80 35.49 234.80 35.49Q228.80 35.49 225.72 32.77Q222.64 30.05 222.64 26.49Q222.64 22.93 224.40 21.37Q226.16 19.81 228.56 19.81Q230.96 19.81 232.52 21.37Q234.08 22.93 234.08 25.37Q234.08 27.81 232.56 29.49Q231.04 31.17 228.64 31.17L228.64 31.17Q227.60 31.17 226.48 30.85L226.48 30.85Q228.24 33.41 232.08 33.41" transform="matrix(1,0,0,1,-180.1999969482422,-17.386999130249023)" style="fill:rgb(11, 11, 11);transform:matrix(1, 0, 0, 1, -180.2, -17.387);;animation:none"></path></g>
<g class="path" style="transform-origin:91px 7.59px;transform:matrix(1, 0, 0, 1, 0, -6.57982);animation-duration:1.47059s;animation-timing-function:linear;animation-delay:-0.215686s;animation-iteration-count:infinite;animation-direction:normal;animation-fill-mode:forwards;animation-play-state:paused;animation-name:animate-epyih64cgw;animation-timeline:auto;animation-range-start:normal;animation-range-end:normal;transform-box:view-box;;animation:none"><path d="M284 33.89L284 33.89Q285.92 33.89 288 31.65L288 31.65L289.20 32.61Q288.64 33.73 286.72 34.61Q284.80 35.49 282.48 35.49L282.48 35.49Q275.20 35.49 275.20 28.93L275.20 28.93Q275.20 26.13 276.64 18.93Q278.08 11.73 278.08 9.49L278.08 9.49Q278.08 6.05 274.80 6.05L274.80 6.05Q272.08 6.05 269.56 9.73Q267.04 13.41 265.44 19.73L265.44 19.73L262.80 34.77L253.20 34.77L262.08-15.47Q259.68-15.23 258.08-13.23L258.08-13.23L256.88-14.19Q259.28-17.07 262.92-17.07Q266.56-17.07 268.56-15.23Q270.56-13.39 270.56-10.03L270.56-10.03Q270.56-9.39 270.40-7.95L270.40-7.95L267.04 11.01Q270.32 3.65 277.20 3.65L277.20 3.65Q281.92 3.65 284.56 6.33Q287.20 9.01 287.20 13.73L287.20 13.73Q287.20 16.21 285.68 23.29Q284.16 30.37 284 33.89" transform="matrix(1,0,0,1,-180.1999969482422,-17.386999130249023)" style="fill:rgb(11, 11, 11);transform:matrix(1, 0, 0, 1, -180.2, -17.387);;animation:none"></path></g>
<g class="path" style="transform-origin:130.04px 11.74px;transform:matrix(1, 0, 0, 1, 0, -3.69662);animation-duration:1.47059s;animation-timing-function:linear;animation-delay:-0.107843s;animation-iteration-count:infinite;animation-direction:normal;animation-fill-mode:forwards;animation-play-state:paused;animation-name:animate-epyih64cgw;animation-timeline:auto;animation-range-start:normal;animation-range-end:normal;transform-box:view-box;;animation:none"><path d="M321.20 35.49L321.20 35.49Q314.16 35.49 313.52 29.33L313.52 29.33Q310 35.49 304.64 35.49Q299.28 35.49 296.12 32.25Q292.96 29.01 292.96 23.17L292.96 23.17Q292.96 14.05 297.44 8.85Q301.92 3.65 309.04 3.65L309.04 3.65Q314.88 3.65 316.80 9.17L316.80 9.17Q317.20 6.77 317.68 4.37L317.68 4.37Q323.60 4.37 326.48 3.89L326.48 3.89L327.52 3.65L322 33.89Q324.40 33.65 326 31.65L326 31.65L327.20 32.61Q324.80 35.49 321.20 35.49 zM302 27.25Q302 30.85 302.92 32.25Q303.84 33.65 305.76 33.65Q307.68 33.65 309.68 31.57L309.68 31.57Q312.32 28.85 313.92 24.69L313.92 24.69Q314.16 23.65 314.84 19.69Q315.52 15.73 316 13.17L316 13.17Q315.76 10.13 314.32 7.89Q312.88 5.65 310.72 5.65L310.72 5.65Q306.80 5.65 304.40 12.65Q302 19.65 302 27.25L302 27.25" transform="matrix(1,0,0,1,-180.1999969482422,-17.386999130249023)" style="fill:rgb(11, 11, 11);transform:matrix(1, 0, 0, 1, -180.2, -17.387);;animation:none"></path></g>
<g class="path" style="transform-origin:168.68px 7.59px;transform:matrix(1, 0, 0, 1, 0, 0);animation-duration:1.47059s;animation-timing-function:linear;animation-delay:0s;animation-iteration-count:infinite;animation-direction:normal;animation-fill-mode:forwards;animation-play-state:paused;animation-name:animate-epyih64cgw;animation-timeline:auto;animation-range-start:normal;animation-range-end:normal;transform-box:view-box;;animation:none"><path d="M361.68 33.89L361.68 33.89Q363.60 33.89 365.68 31.65L365.68 31.65L366.88 32.61Q366.32 33.73 364.40 34.61Q362.48 35.49 360.16 35.49L360.16 35.49Q352.88 35.49 352.88 28.93L352.88 28.93Q352.88 26.13 354.32 18.93Q355.76 11.73 355.76 9.49L355.76 9.49Q355.76 6.05 352.48 6.05L352.48 6.05Q349.76 6.05 347.24 9.73Q344.72 13.41 343.12 19.73L343.12 19.73L340.48 34.77L330.88 34.77L339.76-15.47Q337.36-15.23 335.76-13.23L335.76-13.23L334.56-14.19Q336.96-17.07 340.60-17.07Q344.24-17.07 346.24-15.23Q348.24-13.39 348.24-10.03L348.24-10.03Q348.24-9.39 348.08-7.95L348.08-7.95L344.72 11.01Q348 3.65 354.88 3.65L354.88 3.65Q359.60 3.65 362.24 6.33Q364.88 9.01 364.88 13.73L364.88 13.73Q364.88 16.21 363.36 23.29Q361.84 30.37 361.68 33.89" transform="matrix(1,0,0,1,-180.1999969482422,-17.386999130249023)" style="fill:rgb(11, 11, 11);transform:matrix(1, 0, 0, 1, -180.2, -17.387);;animation:none"></path></g></g>
<text dy="0.35em" fill="#0b0b0b" font-family="Sail" font-size="52" style="fill:rgb(11, 11, 11);opacity:0;;animation:none">Sagar shah</text></g></g>
<STYLE type="text/css">@keyframes animate-epyih64cgw { 0.00% {transform: translate(0.00px,0.00px) rotate(0.00deg) scale(1.00, 1.00) skew(0deg, 0.00deg) ;opacity: 1.00;}2.00% {animation-timing-function: cubic-bezier(0.20,0.39,0.50,0.97);transform: translate(0.00px,-1.08px) rotate(0.00deg) ;}36.00% {animation-timing-function: cubic-bezier(0.50,0.03,0.80,0.61);transform: translate(0.00px,-10.00px) rotate(0.00deg) ;}72.00% {transform: translate(0.00px,-0.12px) rotate(0.00deg) ;}74.00% {animation-timing-function: cubic-bezier(0.24,0.43,0.48,0.91);transform: translate(0.00px,0.00px) rotate(0.00deg) scale(1.00, 0.95) ;}86.00% {animation-timing-function: cubic-bezier(0.53,0.08,0.77,0.57);transform: translate(0.00px,0.00px) rotate(0.00deg) scale(1.00, 0.80) ;}100.00% {animation-timing-function: cubic-bezier(0.53,0.08,0.77,0.57);transform: translate(0.00px,0.00px) rotate(0.00deg) scale(1.00, 1.00) ;} }</STYLE><!-- [ldio] generated by https://loading.io --></svg>